# xmcd CD database file
#
# Track frame offsets:
#	150
#	17894
#	34540
#	59564
#	78607
#	96275
#	112981
#	134758
#	152258
#	170683
#	189521
#	205683
#	220264
#	238224
#	253728
#	272393
#	288819
#	311075
#	326348
#	343533
#
# Disc length: 4850 seconds
#
# Revision: 2
# Processed by: cddbd v1.5.2PL0 Copyright (c) Steve Scherf et al.
# Submitted via: CDex 1.51
#
DISCID=2012f014
DTITLE=Various Artist - ZM-PCP-20
DYEAR=1900
DGENRE=Blues
TTITLE0=A Great Big World Ft Christina Aguilera - Say Something
TTITLE1=Beyonce - XO
TTITLE2=Beyonce Ft Jay-Z - Drunk In Love
TTITLE3=Britney Spears - Perfume
TTITLE4=Ellie Goulding - Goodness Gracious
TTITLE5=Elyar Fox - Do It All Over Again
TTITLE6=James Arthur - Recovery
TTITLE7=Jason Derulo - Trumpets
TTITLE8=Lily Allen - Air Balloon
TTITLE9=Little Mix - Little Me
TTITLE10=Lorde - Team
TTITLE11=Naughty Boy Ft Wiz Khalifa and Ella Eyre - Think About It
TTITLE12=Neon Jungle - Braveheart
TTITLE13=Paloma Faith - Can't Rely On You
TTITLE14=Pharrell Williams - Happy
TTITLE15=Pitbull Ft Ke$ha - Timber
TTITLE16=Rudimental Ft Emeli Sande - Free
TTITLE17=Vamps The - Wild Heart
TTITLE18=Tinie Tempah Ft Labrinth - Lover Not A Fighter
TTITLE19=Will.i.am Ft Miley Cyrus French Montana and Wiz Khalifa - Feelin' Myself
EXTD=
EXTT0=
EXTT1=
EXTT2=
EXTT3=
EXTT4=
EXTT5=
EXTT6=
EXTT7=
EXTT8=
EXTT9=
EXTT10=
EXTT11=
EXTT12=
EXTT13=
EXTT14=
EXTT15=
EXTT16=
EXTT17=
EXTT18=
EXTT19=
PLAYORDER=
